<?xml version="1.0" encoding="utf-8"?>
<!-- Generator: Adobe Illustrator 19.2.1, SVG Export Plug-In . SVG Version: 6.00 Build 0)  -->
<!DOCTYPE svg PUBLIC "-//W3C//DTD SVG 1.1//EN" "http://www.w3.org/Graphics/SVG/1.1/DTD/svg11.dtd">
<svg version="1.1" id="Layer_1" xmlns="http://www.w3.org/2000/svg" xmlns:xlink="http://www.w3.org/1999/xlink" x="0px" y="0px"
	 viewBox="0 0 100 100" style="enable-background:new 0 0 100 100;" xml:space="preserve">
<style type="text/css">
	.st0{fill:url(#SVGID_1_);}
	.st1{fill:url(#SVGID_2_);}
	.st2{fill:url(#SVGID_3_);}
	.st3{fill:url(#SVGID_4_);}
	.st4{fill:url(#SVGID_5_);}
	.st5{fill:url(#SVGID_6_);}
	.st6{fill:url(#SVGID_7_);}
	.st7{fill:url(#SVGID_8_);}
	.st8{fill:url(#SVGID_9_);}
	.st9{fill:url(#SVGID_10_);}
	.st10{fill:url(#SVGID_11_);}
	.st11{fill:url(#SVGID_12_);}
	.st12{fill:url(#SVGID_13_);}
	.st13{fill:url(#SVGID_14_);}
</style>
<g>
	<g>
		<linearGradient id="SVGID_1_" gradientUnits="userSpaceOnUse" x1="52.0543" y1="10.8911" x2="52.0543" y2="76.9592">
			<stop  offset="0" style="stop-color:#F7931E"/>
			<stop  offset="1" style="stop-color:#F15A24"/>
		</linearGradient>
		<path class="st0" d="M45.4,72.9C45.4,72.9,45.4,72.9,45.4,72.9c-1.7-0.1-2.1-1.6-2.5-3.1c-0.6-2.3-1.6-6-5.2-10.1
			c-6.2-7-8-16.9-4.5-24.6c3.1-6.9,10-10.9,18.9-10.9s15.7,4,18.9,10.9c3.5,7.8,1.7,17.7-4.5,24.6c-4,4.5-6,7.2-6,8
			c0,0.8-0.5,1.4-1.2,1.6C46.2,72.9,45.7,72.9,45.4,72.9z M52.1,27.5c-7.6,0-13.2,3.2-15.8,8.9c-3,6.6-1.4,15,4,21
			c4.1,4.6,5.3,9,6,11.4c0,0.1,0.1,0.3,0.1,0.4c2.2-0.6,7.2-1.9,10.9-2.9c0.5-1.6,2.2-3.9,6.7-8.9c5.3-6,6.9-14.4,4-21
			C65.3,30.7,59.7,27.5,52.1,27.5z"/>
		<linearGradient id="SVGID_2_" gradientUnits="userSpaceOnUse" x1="55.7901" y1="10.8911" x2="55.7901" y2="76.9592">
			<stop  offset="0" style="stop-color:#F7931E"/>
			<stop  offset="1" style="stop-color:#F15A24"/>
		</linearGradient>
		<path class="st1" d="M51.6,90.5c-0.8,0-1.4-0.5-1.6-1.3c-0.2-0.9,0.3-1.8,1.2-2l8.3-2.1c0.9-0.2,1.8,0.3,2,1.2
			c0.2,0.9-0.3,1.8-1.2,2L52,90.4C51.9,90.4,51.8,90.5,51.6,90.5z"/>
		<linearGradient id="SVGID_3_" gradientUnits="userSpaceOnUse" x1="52.5454" y1="10.8911" x2="52.5454" y2="76.9592">
			<stop  offset="0" style="stop-color:#F7931E"/>
			<stop  offset="1" style="stop-color:#F15A24"/>
		</linearGradient>
		<path class="st2" d="M45.1,82.7c-0.7,0-1.4-0.5-1.6-1.3c-0.2-0.9,0.3-1.8,1.2-2l14.8-3.8c0.9-0.2,1.8,0.3,2,1.2
			c0.2,0.9-0.3,1.8-1.2,2l-14.8,3.8C45.4,82.7,45.3,82.7,45.1,82.7z"/>
		<linearGradient id="SVGID_4_" gradientUnits="userSpaceOnUse" x1="52.5454" y1="10.8911" x2="52.5454" y2="76.9592">
			<stop  offset="0" style="stop-color:#F7931E"/>
			<stop  offset="1" style="stop-color:#F15A24"/>
		</linearGradient>
		<path class="st3" d="M45.1,87.5c-0.7,0-1.4-0.5-1.6-1.3c-0.2-0.9,0.3-1.8,1.2-2l14.8-3.8c0.9-0.2,1.8,0.3,2,1.2
			c0.2,0.9-0.3,1.8-1.2,2l-14.8,3.8C45.4,87.5,45.3,87.5,45.1,87.5z"/>
		<linearGradient id="SVGID_5_" gradientUnits="userSpaceOnUse" x1="52.5454" y1="10.8911" x2="52.5454" y2="76.9592">
			<stop  offset="0" style="stop-color:#F7931E"/>
			<stop  offset="1" style="stop-color:#F15A24"/>
		</linearGradient>
		<path class="st4" d="M45.1,77.9c-0.7,0-1.4-0.5-1.6-1.3c-0.2-0.9,0.3-1.8,1.2-2l14.8-3.8c0.9-0.2,1.8,0.3,2,1.2
			c0.2,0.9-0.3,1.8-1.2,2l-14.8,3.8C45.4,77.9,45.3,77.9,45.1,77.9z"/>
	</g>
	<linearGradient id="SVGID_6_" gradientUnits="userSpaceOnUse" x1="20.3702" y1="10.8911" x2="20.3702" y2="76.9592">
		<stop  offset="0" style="stop-color:#F7931E"/>
		<stop  offset="1" style="stop-color:#F15A24"/>
	</linearGradient>
	<path class="st5" d="M23.8,47.7h-6.9c-0.9,0-1.7-0.8-1.7-1.7s0.8-1.7,1.7-1.7h6.9c0.9,0,1.7,0.8,1.7,1.7S24.7,47.7,23.8,47.7z"/>
	<linearGradient id="SVGID_7_" gradientUnits="userSpaceOnUse" x1="24.6651" y1="10.8911" x2="24.6651" y2="76.9592">
		<stop  offset="0" style="stop-color:#F7931E"/>
		<stop  offset="1" style="stop-color:#F15A24"/>
	</linearGradient>
	<path class="st6" d="M27.6,33.4c-0.3,0-0.6-0.1-0.8-0.2l-5.9-3.4c-0.8-0.5-1.1-1.5-0.6-2.3c0.5-0.8,1.5-1.1,2.3-0.6l5.9,3.4
		c0.8,0.5,1.1,1.5,0.6,2.3C28.8,33.1,28.2,33.4,27.6,33.4z"/>
	<linearGradient id="SVGID_8_" gradientUnits="userSpaceOnUse" x1="36.3975" y1="10.8911" x2="36.3975" y2="76.9592">
		<stop  offset="0" style="stop-color:#F7931E"/>
		<stop  offset="1" style="stop-color:#F15A24"/>
	</linearGradient>
	<path class="st7" d="M38.1,22.9c-0.6,0-1.1-0.3-1.5-0.8l-3.4-5.9c-0.5-0.8-0.2-1.8,0.6-2.3c0.8-0.5,1.8-0.2,2.3,0.6l3.4,5.9
		c0.5,0.8,0.2,1.8-0.6,2.3C38.7,22.8,38.4,22.9,38.1,22.9z"/>
	<linearGradient id="SVGID_9_" gradientUnits="userSpaceOnUse" x1="52.428" y1="10.8911" x2="52.428" y2="76.9592">
		<stop  offset="0" style="stop-color:#F7931E"/>
		<stop  offset="1" style="stop-color:#F15A24"/>
	</linearGradient>
	<path class="st8" d="M52.4,19.1c-0.9,0-1.7-0.8-1.7-1.7v-6.9c0-0.9,0.8-1.7,1.7-1.7s1.7,0.8,1.7,1.7v6.9
		C54.1,18.3,53.4,19.1,52.4,19.1z"/>
	<linearGradient id="SVGID_10_" gradientUnits="userSpaceOnUse" x1="68.4585" y1="10.8911" x2="68.4585" y2="76.9592">
		<stop  offset="0" style="stop-color:#F7931E"/>
		<stop  offset="1" style="stop-color:#F15A24"/>
	</linearGradient>
	<path class="st9" d="M66.7,22.9c-0.3,0-0.6-0.1-0.8-0.2c-0.8-0.5-1.1-1.5-0.6-2.3l3.4-5.9c0.5-0.8,1.5-1.1,2.3-0.6
		c0.8,0.5,1.1,1.5,0.6,2.3l-3.4,5.9C67.9,22.6,67.3,22.9,66.7,22.9z"/>
	<linearGradient id="SVGID_11_" gradientUnits="userSpaceOnUse" x1="80.1909" y1="10.8911" x2="80.1909" y2="76.9592">
		<stop  offset="0" style="stop-color:#F7931E"/>
		<stop  offset="1" style="stop-color:#F15A24"/>
	</linearGradient>
	<path class="st10" d="M77.2,33.4c-0.6,0-1.1-0.3-1.5-0.8c-0.5-0.8-0.2-1.8,0.6-2.3l5.9-3.4c0.8-0.5,1.8-0.2,2.3,0.6
		c0.5,0.8,0.2,1.8-0.6,2.3l-5.9,3.4C77.8,33.3,77.5,33.4,77.2,33.4z"/>
	<linearGradient id="SVGID_12_" gradientUnits="userSpaceOnUse" x1="80.1922" y1="10.8911" x2="80.1922" y2="76.9592">
		<stop  offset="0" style="stop-color:#F7931E"/>
		<stop  offset="1" style="stop-color:#F15A24"/>
	</linearGradient>
	<path class="st11" d="M83.2,65.5c-0.3,0-0.6-0.1-0.8-0.2l-5.9-3.4c-0.8-0.5-1.1-1.5-0.6-2.3c0.5-0.8,1.5-1.1,2.3-0.6l5.9,3.4
		c0.8,0.5,1.1,1.5,0.6,2.3C84.3,65.1,83.7,65.5,83.2,65.5z"/>
	<linearGradient id="SVGID_13_" gradientUnits="userSpaceOnUse" x1="38.1118" y1="70.8195" x2="38.1118" y2="70.8195">
		<stop  offset="0" style="stop-color:#F7931E"/>
		<stop  offset="1" style="stop-color:#F15A24"/>
	</linearGradient>
	<path class="st12" d="M38.1,70.8"/>
	<linearGradient id="SVGID_14_" gradientUnits="userSpaceOnUse" x1="24.6638" y1="10.8911" x2="24.6638" y2="76.9592">
		<stop  offset="0" style="stop-color:#F7931E"/>
		<stop  offset="1" style="stop-color:#F15A24"/>
	</linearGradient>
	<path class="st13" d="M21.7,65.4c-0.6,0-1.1-0.3-1.5-0.8c-0.5-0.8-0.2-1.8,0.6-2.3l5.9-3.4c0.8-0.5,1.8-0.2,2.3,0.6
		c0.5,0.8,0.2,1.8-0.6,2.3l-5.9,3.4C22.3,65.4,22,65.4,21.7,65.4z"/>
</g>
</svg>
