<?xml version="1.0" encoding="utf-8"?>
<!-- Generator: Adobe Illustrator 19.2.1, SVG Export Plug-In . SVG Version: 6.00 Build 0)  -->
<!DOCTYPE svg PUBLIC "-//W3C//DTD SVG 1.1//EN" "http://www.w3.org/Graphics/SVG/1.1/DTD/svg11.dtd">
<svg version="1.1" id="Layer_1" xmlns="http://www.w3.org/2000/svg" xmlns:xlink="http://www.w3.org/1999/xlink" x="0px" y="0px"
	 viewBox="0 0 100 100" enable-background="new 0 0 100 100" xml:space="preserve">
<linearGradient id="SVGID_1_" gradientUnits="userSpaceOnUse" x1="49.8381" y1="8" x2="49.8381" y2="91.8365">
	<stop  offset="0" style="stop-color:#F7931E"/>
	<stop  offset="1" style="stop-color:#F15A24"/>
</linearGradient>
<path fill="url(#SVGID_1_)" d="M67.7,93c-7.3,0-13.3-5.9-13.3-13.3c0-0.8,0.1-1.5,0.2-2.2L38.3,71c-3.2,4.3-8.2,6.8-13.6,6.8
	c-9.4,0-17-7.6-17-17c0-9.4,7.6-17,17-17c4.4,0,8.6,1.7,11.7,4.6l21-15.3c-1.2-2.5-1.8-5.1-1.8-7.8c0-10,8.1-18.2,18.2-18.2
	c10,0,18.2,8.2,18.2,18.2c0,10-8.1,18.2-18.2,18.2c-4.7,0-9.2-1.8-12.5-5L40.3,54c0.9,2.1,1.4,4.5,1.4,6.8c0,1.4-0.2,2.7-0.5,4.1
	l16.2,6.5c2.5-3.1,6.3-4.9,10.2-4.9c7.3,0,13.3,5.9,13.3,13.3C80.9,87.1,75,93,67.7,93z M67.7,73.2c-3.6,0-6.5,2.9-6.5,6.5
	s2.9,6.5,6.5,6.5s6.5-2.9,6.5-6.5S71.3,73.2,67.7,73.2z M24.7,50.6c-5.7,0-10.3,4.6-10.3,10.3c0,5.7,4.6,10.3,10.3,10.3
	c2.8,0,5.4-1.1,7.3-3.1c1.9-1.9,2.9-4.5,2.9-7.2C35,55.2,30.4,50.6,24.7,50.6z M73.8,13.9c-6.4,0-11.5,5.2-11.5,11.5
	S67.4,37,73.8,37c6.4,0,11.5-5.2,11.5-11.5S80.1,13.9,73.8,13.9z"/>
</svg>
