<?xml version="1.0" encoding="utf-8"?>
<!-- Generator: Adobe Illustrator 19.2.1, SVG Export Plug-In . SVG Version: 6.00 Build 0)  -->
<!DOCTYPE svg PUBLIC "-//W3C//DTD SVG 1.1//EN" "http://www.w3.org/Graphics/SVG/1.1/DTD/svg11.dtd">
<svg version="1.1" id="Layer_1" xmlns="http://www.w3.org/2000/svg" xmlns:xlink="http://www.w3.org/1999/xlink" x="0px" y="0px"
	 viewBox="0 0 100 100" enable-background="new 0 0 100 100" xml:space="preserve">
<linearGradient id="SVGID_1_" gradientUnits="userSpaceOnUse" x1="62" y1="13" x2="62" y2="88.5007">
	<stop  offset="0" style="stop-color:#F7931E"/>
	<stop  offset="1" style="stop-color:#F15A24"/>
</linearGradient>
<path fill="url(#SVGID_1_)" d="M73,54H48V25c0-1.7,1.3-3,3-3c1.7,0,3,1.3,3,3v23h19c1.7,0,3,1.3,3,3C76,52.7,74.7,54,73,54z"/>
<linearGradient id="SVGID_2_" gradientUnits="userSpaceOnUse" x1="51.1667" y1="13" x2="51.1667" y2="88.5007">
	<stop  offset="0" style="stop-color:#F7931E"/>
	<stop  offset="1" style="stop-color:#F15A24"/>
</linearGradient>
<path fill="url(#SVGID_2_)" d="M51.2,14c19.8,0,36,16.1,36,36S71,86,51.2,86s-36-16.1-36-36S31.3,14,51.2,14 M51.2,8
	C28,8,9.2,26.8,9.2,50s18.8,42,42,42s42-18.8,42-42S74.3,8,51.2,8L51.2,8z"/>
</svg>
