<?xml version="1.0" encoding="utf-8"?>
<!-- Generator: Adobe Illustrator 19.2.1, SVG Export Plug-In . SVG Version: 6.00 Build 0)  -->
<!DOCTYPE svg PUBLIC "-//W3C//DTD SVG 1.1//EN" "http://www.w3.org/Graphics/SVG/1.1/DTD/svg11.dtd">
<svg version="1.1" id="Layer_1" xmlns="http://www.w3.org/2000/svg" xmlns:xlink="http://www.w3.org/1999/xlink" x="0px" y="0px"
	 viewBox="0 0 100 100" style="enable-background:new 0 0 100 100;" xml:space="preserve">
<style type="text/css">
	.st0{fill:url(#SVGID_1_);}
	.st1{fill:url(#SVGID_2_);}
</style>
<linearGradient id="SVGID_1_" gradientUnits="userSpaceOnUse" x1="50.6885" y1="13.7888" x2="50.6885" y2="87.8232">
	<stop  offset="0" style="stop-color:#F7931E"/>
	<stop  offset="1" style="stop-color:#F15A24"/>
</linearGradient>
<path class="st0" d="M50.7,9C27.8,9,9.2,27.6,9.2,50.4c0,22.9,18.6,41.5,41.5,41.5s41.5-18.6,41.5-41.5C92.2,27.6,73.6,9,50.7,9z
	 M65.8,85.4l-2.5-0.8L60,84.1l-6.1,1.4l-1.7,1.1h-3.1l-1.9,0.1l-2-0.9L44,84.1l-1.5-0.4l0.2,1.6L41.6,87l-3.8-2l-1.2,0.8
	c-14.1-5.6-24.1-19.4-24.1-35.4c0-2.2,0.2-4.4,0.6-6.5l3.3,1.1l2.2,1.4l0.7,1.5l1.3,2.5l2.2,1.1L18,53.6l-0.1,6.6l0.6,2.9l2.6,1.5
	l1.5,2.2l4.1,7.3l1.7,4.8l3.6,3.5l3.1,1.3l0.8-1.4l-1.3-2.7l0.2-4.6l0.7-2.8l4.5-2.1l-1.3-3.2c0,0,1.8-3.5,1.7-4.3
	c-0.1-0.8,2.5-2.1,2.5-2.1l1.3-0.6l0.9-2.3l-0.5-1.8l-1.6-0.5l-4.1-4.8l-3.6-2.5l-9.4-0.6L24.3,49l-2,0.1l0.3-1.8L22.3,46l0.8-2
	l1.3-0.8l-0.7-1.1h-2.8c0,0-1.4-2.2-2.4-3.4c-1-1.1,4.1-8.1,4.1-8.1l5-0.1l0.8,2.8l1.3,1.4l2,0.7l-1.3-3.4V30l1.6-2.5l1.7-2.9v-0.8
	V22l1.7-0.8l3.1-0.7l0.5-1.6c0,0-0.7-1.5-0.4-1.8s0.4-2.2,1.7-3.2c0.1-0.1,0.2-0.1,0.2-0.2c1.3-0.4,2.6-0.7,4-0.9l-0.7,1.3v2h2.5
	l1.3-1.5l3.1-1l-0.1-1.3c0,0,0,0,0.1,0c2.3,0,4.6,0.2,6.8,0.6l-1.5,0.6l2.6,1l2.9,0.6l1.5,1l0.3,2.8l3.5,2.2l2.9,0.5l-1.2,1.6
	l-2.4,1.1l-1.4,1.4l0.4,1.8l3.6,1.3l1.8-0.7l2.5-0.8l1.3-2l2,1.3l-0.7,2l3.8,0.6l3,2v0.8l-3-2.8l-4.8-0.3L70.1,29l-2.9,1.5l-2.9,1.4
	l-3.1,2.5l-1.3,3.5l1.3,2.1l0.8,2.3l-1.6,1.9l1.4,2.6l3.9,2l2.9,2.4l4.4,0.6l2.8,0.6l2.5-0.6l1.3,2.1l0.1,2l-1,3.4l0.9,1.4l-3.1,4.2
	v2.8L75.2,72l-1.6,2.3l1.8,2.1l2.4,0l0.9-0.8l0.7,0.1C75.6,79.8,71,83.2,65.8,85.4z"/>
<linearGradient id="SVGID_2_" gradientUnits="userSpaceOnUse" x1="59.988" y1="13.7888" x2="59.988" y2="87.8232">
	<stop  offset="0" style="stop-color:#F7931E"/>
	<stop  offset="1" style="stop-color:#F15A24"/>
</linearGradient>
<path class="st1" d="M62,17.8c0,0-0.4-0.9-0.5-1.8c-0.1-0.8-2.5,0-2.5,0l-1,0.7l2.7,1.1H62z"/>
</svg>
