<?xml version="1.0" encoding="utf-8"?>
<!-- Generator: Adobe Illustrator 19.2.1, SVG Export Plug-In . SVG Version: 6.00 Build 0)  -->
<!DOCTYPE svg PUBLIC "-//W3C//DTD SVG 1.1//EN" "http://www.w3.org/Graphics/SVG/1.1/DTD/svg11.dtd">
<svg version="1.1" id="Layer_1" xmlns="http://www.w3.org/2000/svg" xmlns:xlink="http://www.w3.org/1999/xlink" x="0px" y="0px"
	 viewBox="0 0 100 100" style="enable-background:new 0 0 100 100;" xml:space="preserve">
<style type="text/css">
	.st0{fill:url(#SVGID_1_);}
	.st1{fill:url(#SVGID_2_);}
	.st2{fill:url(#SVGID_3_);}
</style>
<g>
	<linearGradient id="SVGID_1_" gradientUnits="userSpaceOnUse" x1="39.3085" y1="7.5" x2="39.3085" y2="92.0725">
		<stop  offset="0" style="stop-color:#F7931E"/>
		<stop  offset="1" style="stop-color:#F15A24"/>
	</linearGradient>
	<path class="st0" d="M63.4,71.3c-0.5-0.7-1.3-1.1-2.2-1.1c-0.5,0-1,0.1-1.5,0.4c-3.5,2.1-7.5,3.3-11.6,3.3
		c-12.2,0-22.2-9.9-22.2-22.2c0-10.9,8.1-20.4,18.9-21.9c1.4-0.2,2.2-1.4,2.2-2.8V12.6c0-1.5-1-2.8-2.6-2.8
		c-21.2,0-38.2,18.8-38.2,42s18.8,42,42,42c10.4,0,16-1.9,23.1-7.8c1.2-1,1.4-2.7,0.4-3.9L63.4,71.3z M48.3,88.2
		c-20.1,0-36.4-16.3-36.4-36.4c0-19,13.1-34.7,30.1-36.3v9.3c-13,2.9-21.4,14.1-21.4,27c0,15.3,12.4,27.7,27.7,27.7
		c4.2,0,8.4-1,12.2-2.9l5.2,6.7C60.7,87,56.3,88.2,48.3,88.2z"/>
	<linearGradient id="SVGID_2_" gradientUnits="userSpaceOnUse" x1="71.3823" y1="7.5" x2="71.3823" y2="92.0725">
		<stop  offset="0" style="stop-color:#F7931E"/>
		<stop  offset="1" style="stop-color:#F15A24"/>
	</linearGradient>
	<path class="st1" d="M51.8,26.1c12.2,0,22.2,9.9,22.2,22.2c0,1.5,1.2,2.8,2.8,2.8H91c1.5,0,2.8-1.2,2.8-2.8c0-23.1-18.8-42-42-42
		C50.2,6.2,49,7.5,49,9v14.3C49,24.8,50.2,26.1,51.8,26.1z M79.4,45C78.1,32,68,21.9,55,20.6v-8.7C72,13.3,86.7,28,88.1,45H79.4z"/>
	<linearGradient id="SVGID_3_" gradientUnits="userSpaceOnUse" x1="79.4233" y1="7.5" x2="79.4233" y2="92.0725">
		<stop  offset="0" style="stop-color:#F7931E"/>
		<stop  offset="1" style="stop-color:#F15A24"/>
	</linearGradient>
	<path class="st2" d="M91,53H76.4c-1.4,0-2.6,0.8-2.8,2.2c-0.8,5.4-3.5,10-7.6,13.5c-1.2,1-1.3,2.7-0.4,3.9l10.6,13.2
		c0.5,0.6,1.2,1,2,1c0.1,0,0.1,0,0.2,0c0.7,0,1.4-0.2,1.9-0.6c8.5-7.9,13.4-19,13.4-30.6C93.8,54,92.5,53,91,53z M88.1,58
		c-0.6,8-3.9,15.8-9.4,21.8L71.7,71c3.5-3.6,6-8,7.1-13H88.1z"/>
</g>
</svg>
