<?xml version="1.0" encoding="utf-8"?>
<!-- Generator: Adobe Illustrator 19.2.1, SVG Export Plug-In . SVG Version: 6.00 Build 0)  -->
<!DOCTYPE svg PUBLIC "-//W3C//DTD SVG 1.1//EN" "http://www.w3.org/Graphics/SVG/1.1/DTD/svg11.dtd">
<svg version="1.1" id="Layer_1" xmlns:sketch="http://www.bohemiancoding.com/sketch/ns"
	 xmlns="http://www.w3.org/2000/svg" xmlns:xlink="http://www.w3.org/1999/xlink" x="0px" y="0px" viewBox="0 0 100 100"
	 style="enable-background:new 0 0 100 100;" xml:space="preserve">
<style type="text/css">
	.st0{fill:url(#SVGID_1_);}
</style>
<title>14</title>
<desc>Created with Sketch.</desc>
<linearGradient id="SVGID_1_" gradientUnits="userSpaceOnUse" x1="50" y1="11.6073" x2="50" y2="90.6856">
	<stop  offset="0" style="stop-color:#F7931E"/>
	<stop  offset="1" style="stop-color:#F15A24"/>
</linearGradient>
<path class="st0" d="M60.5,73.4c-1.9,0-3.5-1.6-3.5-3.5s1.6-3.5,3.5-3.5h22.4c2.3,0,4.2-1.9,4.2-4.2V37.1c0-2.3-1.9-4.2-4.2-4.2
	H60.5c-1.9,0-3.5-1.6-3.5-3.5s1.6-3.5,3.5-3.5h22.4C89,26,94,31,94,37.1v25.2c0,6.1-5,11.1-11.1,11.1H60.5z M17.1,73.4
	C11,73.4,6,68.4,6,62.3V37.1C6,31,11,26,17.1,26h22.4c1.9,0,3.5,1.6,3.5,3.5s-1.6,3.5-3.5,3.5H17.1c-2.3,0-4.2,1.9-4.2,4.2v25.2
	c0,2.3,1.9,4.2,4.2,4.2h22.4c1.9,0,3.5,1.6,3.5,3.5s-1.6,3.5-3.5,3.5H17.1z M28.6,53.2c-1.9,0-3.5-1.6-3.5-3.5s1.6-3.5,3.5-3.5h42.9
	c1.9,0,3.5,1.6,3.5,3.5s-1.6,3.5-3.5,3.5H28.6z"/>
</svg>
